<?xml version="1.0" encoding="utf-8"?>
<!-- Generator: Adobe Illustrator 18.1.1, SVG Export Plug-In . SVG Version: 6.00 Build 0)  -->
<svg version="1.1" id="Layer_1" xmlns="http://www.w3.org/2000/svg" xmlns:xlink="http://www.w3.org/1999/xlink" x="0px" y="0px"
	 viewBox="0 0 368.2 177.7" enable-background="new 0 0 368.2 177.7" xml:space="preserve">
<g>
	
		<linearGradient id="SVGID_1_" gradientUnits="userSpaceOnUse" x1="188.748" y1="93.4167" x2="188.748" y2="134.7966" gradientTransform="matrix(1 0 -0.3631 1 32.7157 0)">
		<stop  offset="0" style="stop-color:#3F95D1"/>
		<stop  offset="0.2052" style="stop-color:#3281B2"/>
		<stop  offset="0.5206" style="stop-color:#1F6C93"/>
		<stop  offset="0.7964" style="stop-color:#105F82"/>
		<stop  offset="1" style="stop-color:#095B7D"/>
	</linearGradient>
	<path fill="url(#SVGID_1_)" d="M202.1,94c-0.9,2.5-2.4,6.2-4.4,11.1c-2,4.9-3.5,8.6-4.4,11.1c-2.7,7.6-4.7,13.3-5.7,17.2l-0.1,0.4
		c0,0.2-0.4,0.3-0.9,0.4c-0.4,0-0.9,0-1.6,0c-0.8-0.1-1.2-0.1-1.1-0.1c-0.3,0-0.7,0-1.3,0.1c-0.6,0.1-1,0.1-1.3,0.1
		c-0.3,0-0.2-0.7,0.2-2c0.4-1.3,0.6-2,0.5-2c-0.1,0.1-0.3,0.2-0.6,0.4c-3.7,2.8-7.2,4.2-10.7,4.2c-3.9,0-6.6-1.5-8-4.4
		c-1.4-2.8-1.3-6.1,0.1-10.1c1.5-4.1,3.9-7.5,7.3-10.3c3.6-2.9,7.4-4.4,11.4-4.4c2.4,0,4.3,0.7,5.6,2.1c0.6,0.7,1.1,1.4,1.7,2.2
		c0.2-0.1,0.3-0.2,0.4-0.4l3.4-9.3c0.2-0.6,0.5-1.6,1-2.9c0.4-1.3,0.7-2.2,1-2.9c0.2-0.5,0.4-0.7,0.7-0.7c0.7,0,1.8-0.1,3.3-0.2
		c1.5-0.1,2.5-0.2,3.2-0.2C202.2,93.4,202.3,93.6,202.1,94z M185.4,120.2c0.8-2.3,0.9-4.3,0.1-6.1c-0.9-1.9-2.4-2.8-4.7-2.8
		c-2.4,0-4.7,0.9-6.9,2.8c-2.1,1.7-3.6,3.8-4.5,6.2c-0.8,2.3-0.8,4.3,0.1,6c0.9,1.8,2.5,2.7,4.8,2.7c2.3,0,4.6-0.9,6.7-2.7
		C183.1,124.5,184.5,122.5,185.4,120.2z"/>
	
		<linearGradient id="SVGID_2_" gradientUnits="userSpaceOnUse" x1="222.0649" y1="106.9714" x2="222.0649" y2="134.1931" gradientTransform="matrix(1 0 -0.3631 1 32.7157 0)">
		<stop  offset="0" style="stop-color:#3F95D1"/>
		<stop  offset="0.2052" style="stop-color:#3281B2"/>
		<stop  offset="0.5206" style="stop-color:#1F6C93"/>
		<stop  offset="0.7964" style="stop-color:#105F82"/>
		<stop  offset="1" style="stop-color:#095B7D"/>
	</linearGradient>
	<path fill="url(#SVGID_2_)" d="M229.1,108c-0.5,1.4-1.3,3.5-2.5,6.3c-1.1,2.8-2,4.9-2.5,6.4c-0.5,1.4-1.2,3.5-2.1,6.3
		c-0.9,2.8-1.6,4.9-2.1,6.3c-0.1,0.4-0.4,0.6-0.8,0.7c-0.2,0-2.1,0.1-5.9,0.1c-0.2,0-0.1-0.7,0.4-2.2c0.5-1.4,0.6-2.2,0.4-2.2
		c-0.1,0-0.3,0.1-0.5,0.3c-4.2,2.8-7.9,4.2-11.1,4.2c-4.3,0-6.5-1.5-6.8-4.6c-0.2-1.9,0.6-5.3,2.4-10.2c1.6-4.4,3.3-8.2,5.2-11.3
		c0.4-0.7,0.9-1.1,1.4-1.1c0.6,0,1.4,0,2.5,0c1.1,0,2,0,2.5,0c0.4,0,0.5,0.2,0.4,0.6c-0.3,0.7-0.8,2-1.7,3.7
		c-0.9,1.9-1.6,3.2-1.9,3.9c-0.5,1.1-1,2.4-1.5,3.8c-1.2,3.4-1.8,5.6-1.7,6.8c0.1,2.1,1.6,3.1,4.4,3.1c1.2,0,2.9-0.6,5-1.8
		c2.2-1.2,3.6-2.4,4-3.6c0.6-1.4,2.5-6.5,5.7-15.2c0.3-0.9,0.9-1.4,1.7-1.4h4.8C229.1,107,229.3,107.4,229.1,108z"/>
	
		<linearGradient id="SVGID_3_" gradientUnits="userSpaceOnUse" x1="254.729" y1="105.5632" x2="254.729" y2="134.7966" gradientTransform="matrix(1 0 -0.3631 1 32.7157 0)">
		<stop  offset="0" style="stop-color:#3F95D1"/>
		<stop  offset="0.2052" style="stop-color:#3281B2"/>
		<stop  offset="0.5206" style="stop-color:#1F6C93"/>
		<stop  offset="0.7964" style="stop-color:#105F82"/>
		<stop  offset="1" style="stop-color:#095B7D"/>
	</linearGradient>
	<path fill="url(#SVGID_3_)" d="M263.1,108.1c0,0.1-0.1,0.2-0.3,0.5c-2.3,4.4-4.1,8.2-5.2,11.3c-0.1,0.2-1.4,4.5-4,12.9l-0.1,0.4
		c-0.2,0.6-0.5,0.8-1.1,0.8c-0.5,0-1.4,0.1-2.5,0.2c-1.1,0.1-1.9,0.2-2.5,0.2c-0.4,0-0.4-0.7-0.1-2c0.3-1.3,0.4-2,0.2-2
		c-0.1,0-0.8,0.4-2,1.1c-1.5,0.9-2.8,1.6-4,2.1c-1.8,0.8-3.5,1.1-5,1.1c-3.8,0-6.4-1.5-7.9-4.5c-1.4-2.8-1.4-6.1-0.1-9.9
		c1.5-4.2,4-7.8,7.5-10.5c3.6-2.9,7.5-4.3,11.7-4.3c3,0,5.2,1,6.6,3c0.2,0.4,0.5,0.9,0.9,1.7c0,0.1,0.1,0.1,0.1,0.1
		c0.1,0,0.5-0.6,1.2-1.8c0.6-1.2,1.1-1.8,1.5-1.8c0.5,0,1.4,0.1,2.8,0.4C262.6,107.5,263.2,107.8,263.1,108.1z M251.4,120.1
		c0.9-2.4,0.9-4.4,0.1-6.1c-0.8-1.8-2.4-2.7-4.7-2.7c-2.3,0-4.6,0.9-6.8,2.7c-2.1,1.7-3.6,3.8-4.4,6.1c-0.8,2.3-0.8,4.3,0,6
		c0.9,1.8,2.5,2.7,4.8,2.7c2.3,0,4.5-0.9,6.7-2.7C249.1,124.4,250.6,122.4,251.4,120.1z"/>
	
		<linearGradient id="SVGID_4_" gradientUnits="userSpaceOnUse" x1="282.1005" y1="106.1677" x2="282.1005" y2="134.1374" gradientTransform="matrix(1 0 -0.3631 1 32.7157 0)">
		<stop  offset="0" style="stop-color:#3F95D1"/>
		<stop  offset="0.2052" style="stop-color:#3281B2"/>
		<stop  offset="0.5206" style="stop-color:#1F6C93"/>
		<stop  offset="0.7964" style="stop-color:#105F82"/>
		<stop  offset="1" style="stop-color:#095B7D"/>
	</linearGradient>
	<path fill="url(#SVGID_4_)" d="M284.8,107.1c-0.8,2.1-1.6,4-2.5,5.7c-0.2,0.4-0.5,0.7-0.8,0.7c-0.4,0-1,0-1.8-0.1
		c-0.8-0.1-1.4-0.1-1.8-0.1c-2.4,0-4.2,0.7-5.4,2c-0.7,0.8-1.5,2.5-2.5,5.1l-1.1,3.2c-0.4,1.1-0.9,2.7-1.6,4.9
		c-0.7,2.2-1.3,3.8-1.6,4.9c-0.2,0.5-0.5,0.8-0.9,0.8c-0.6,0-1.5,0-2.7,0c-1.2,0-2.1,0-2.7,0c-0.4,0-0.6-0.2-0.4-0.7
		c0.6-1.6,1.4-3.9,2.6-7c1.2-3.1,2.1-5.5,2.6-7c1.7-4.7,2.7-8.5,2.8-11.4c0-0.2,0-0.3,0.1-0.3c0.1-0.2,0.3-0.4,0.6-0.5
		c0.7-0.1,1.8-0.2,3.1-0.3c2.2-0.4,3.3-0.6,3.1-0.6c0.3,0,0.3,0.6,0,1.7c-0.3,1.1-0.3,1.7-0.1,1.7c0,0,0.1,0,0.2-0.1
		c1-0.5,1.9-1,2.9-1.5c1.1-0.5,2.1-0.9,3.1-1.2c0.8-0.2,1.8-0.3,3-0.3C284.3,106.5,285,106.7,284.8,107.1z"/>
	
		<linearGradient id="SVGID_5_" gradientUnits="userSpaceOnUse" x1="307.2251" y1="93.4167" x2="307.2251" y2="134.7966" gradientTransform="matrix(1 0 -0.3631 1 32.7157 0)">
		<stop  offset="0" style="stop-color:#3F95D1"/>
		<stop  offset="0.2052" style="stop-color:#3281B2"/>
		<stop  offset="0.5206" style="stop-color:#1F6C93"/>
		<stop  offset="0.7964" style="stop-color:#105F82"/>
		<stop  offset="1" style="stop-color:#095B7D"/>
	</linearGradient>
	<path fill="url(#SVGID_5_)" d="M320.6,94c-0.9,2.5-2.4,6.2-4.4,11.1c-2,4.9-3.5,8.6-4.4,11.1c-2.7,7.6-4.7,13.3-5.7,17.2l-0.1,0.4
		c0,0.2-0.4,0.3-0.9,0.4c-0.4,0-0.9,0-1.6,0c-0.8-0.1-1.2-0.1-1.1-0.1c-0.3,0-0.7,0-1.3,0.1c-0.6,0.1-1,0.1-1.3,0.1
		c-0.3,0-0.2-0.7,0.2-2c0.4-1.3,0.6-2,0.5-2c-0.1,0.1-0.3,0.2-0.6,0.4c-3.7,2.8-7.2,4.2-10.7,4.2c-3.9,0-6.6-1.5-8-4.4
		c-1.4-2.8-1.3-6.1,0.1-10.1c1.5-4.1,3.9-7.5,7.3-10.3c3.6-2.9,7.4-4.4,11.4-4.4c2.4,0,4.3,0.7,5.6,2.1c0.6,0.7,1.1,1.4,1.7,2.2
		c0.2-0.1,0.3-0.2,0.4-0.4l3.4-9.3c0.2-0.6,0.5-1.6,1-2.9c0.4-1.3,0.7-2.2,1-2.9c0.2-0.5,0.4-0.7,0.7-0.7c0.7,0,1.8-0.1,3.3-0.2
		c1.5-0.1,2.5-0.2,3.2-0.2C320.7,93.4,320.8,93.6,320.6,94z M303.9,120.2c0.8-2.3,0.9-4.3,0.1-6.1c-0.9-1.9-2.4-2.8-4.7-2.8
		c-2.4,0-4.7,0.9-6.9,2.8c-2.1,1.7-3.6,3.8-4.5,6.2c-0.8,2.3-0.8,4.3,0.1,6c0.9,1.8,2.5,2.7,4.8,2.7c2.3,0,4.6-0.9,6.7-2.7
		C301.6,124.5,303,122.5,303.9,120.2z"/>
	
		<linearGradient id="SVGID_6_" gradientUnits="userSpaceOnUse" x1="339.4245" y1="105.6218" x2="339.4245" y2="134.739" gradientTransform="matrix(1 0 -0.3631 1 32.7157 0)">
		<stop  offset="0" style="stop-color:#3F95D1"/>
		<stop  offset="0.2052" style="stop-color:#3281B2"/>
		<stop  offset="0.5206" style="stop-color:#1F6C93"/>
		<stop  offset="0.7964" style="stop-color:#105F82"/>
		<stop  offset="1" style="stop-color:#095B7D"/>
	</linearGradient>
	<path fill="url(#SVGID_6_)" d="M342.6,120.1c-1.5,4-4,7.4-7.7,10.3c-3.8,2.9-7.7,4.4-11.7,4.4c-4,0-6.9-1.5-8.5-4.4
		c-1.6-2.8-1.7-6.2-0.3-10.2c1.5-4,4-7.4,7.7-10.2c3.8-2.9,7.7-4.3,11.7-4.3c4,0,6.8,1.4,8.5,4.3C343.9,112.7,344,116.1,342.6,120.1
		z M336.4,120.2c0.8-2.3,0.8-4.3,0-6c-0.9-1.7-2.5-2.6-4.8-2.6c-2.3,0-4.6,0.9-6.7,2.6c-2.1,1.7-3.5,3.7-4.4,6c-0.8,2.3-0.8,4.3,0,6
		c0.9,1.8,2.5,2.7,4.8,2.7c2.3,0,4.5-0.9,6.7-2.7C334.2,124.4,335.6,122.4,336.4,120.2z"/>
</g>
<g>
	
		<linearGradient id="SVGID_7_" gradientUnits="userSpaceOnUse" x1="132.6875" y1="47.1306" x2="132.6875" y2="133.0564" gradientTransform="matrix(1 0 -0.3631 1 32.7157 0)">
		<stop  offset="0" style="stop-color:#3F95D1"/>
		<stop  offset="0.2052" style="stop-color:#3281B2"/>
		<stop  offset="0.5206" style="stop-color:#1F6C93"/>
		<stop  offset="0.7964" style="stop-color:#105F82"/>
		<stop  offset="1" style="stop-color:#095B7D"/>
	</linearGradient>
	<path fill="url(#SVGID_7_)" d="M172.7,86c-1.5,4.1-4.3,6.9-8.4,8.3c-2.7,0.9-20.8,2.5-54.1,4.9c-1.1,4.9,0.2,9.1,3.6,12.6
		c3.3,3.3,7.6,4.9,12.8,4.9c8.9,0,18.1-2.8,27.6-8.5c1.2-0.7,2.3-1.4,3.5-2.2c0.4,0,0.7,0.1,0.8,0.2c0.1,0.1,0.5,2.1,1.1,5.8
		c0.6,3.8,0.9,5.8,0.8,6.1c-0.1,0.3-0.8,1-2.1,1.9c-11.5,8.7-23.7,13.1-36.6,13.1c-13.1,0-22.1-3.9-27.1-11.6
		c-5-7.7-5.1-18-0.4-30.9C98.2,79,105.6,69,116.1,60.4c11.1-8.9,22.3-13.3,33.7-13.3c10.6,0,18.1,3.8,22.4,11.6
		C176.4,66.2,176.5,75.3,172.7,86z M154.4,80.9c1.7-4.6,1.3-8.7-1.1-12.3c-2.4-3.6-5.9-5.4-10.5-5.4c-5.2,0-10.5,2.1-16.1,6.2
		c-5.5,4.1-9.2,8.8-11.1,13.9c-0.4,1.2,0.4,1.8,2.4,1.8c8.3,0,18.6-0.8,30.8-2.5C152.3,82.1,154.1,81.6,154.4,80.9z"/>
	<path fill="#FFFFFF" d="M110.7,91.1c-4,11.1-11,20.7-20.9,28.9c-10.5,8.7-21.3,13.1-32.3,13.1c-7.3,0-13.1-1.8-17.4-5.5
		c-1.6-1.9-3.1-3.8-4.7-5.6c-0.7,0.2-1.7,1.8-3.1,5c-1.4,3.2-2.4,4.8-3.1,4.8H11.4c-0.7,0-0.9-0.4-0.6-1.1c0,0.1,0.2-0.4,0.7-1.5
		c4.1-8.9,10.8-26,20-51.3c3.8-10.3,8.8-25.5,15.2-45.5c4.1-12.7,5.8-18.3,5.2-16.8c0.5-1.5,1.6-2.3,3.1-2.4c2-0.1,5.1-0.2,9.2-0.3
		c0.8-0.1,2.5-0.2,5-0.6c2.1-0.3,3.8-0.5,5.1-0.5c0.9,0,1.1,0.6,0.7,1.9c-0.7,1.9-1.9,4.8-3.6,8.7c-1.7,3.9-2.9,6.8-3.6,8.8
		c-1.1,2.9-2.8,7.3-5.1,13.1c-2.4,5.8-4.1,10.2-5.1,13.1c-0.8,2.1-0.8,3.2,0,3.2c0.4,0,0.9-0.3,1.6-0.9c9-7.6,18.6-11.5,28.8-11.5
		c11.7,0,19.5,4.3,23.6,13C115.2,69.4,115,79.3,110.7,91.1z M91.9,90.3c2.4-6.6,2.4-12.5,0-17.6c-2.5-5.4-7.1-8.1-13.7-8.1
		c-6.8,0-13.4,2.7-19.8,8c-6.2,5-10.5,10.9-13,17.8c-2.5,6.9-2.5,12.9,0,17.9c2.6,5.2,7.3,7.9,14.2,7.9c6.7,0,13.2-2.7,19.6-8.1
		C85.2,103,89.4,97.1,91.9,90.3z"/>
	
		<linearGradient id="SVGID_8_" gradientUnits="userSpaceOnUse" x1="62.8559" y1="11.7859" x2="62.8559" y2="133.0564" gradientTransform="matrix(1 0 -0.3631 1 32.7157 0)">
		<stop  offset="3.030300e-02" style="stop-color:#7E8083"/>
		<stop  offset="0.2072" style="stop-color:#797B7D"/>
		<stop  offset="0.4632" style="stop-color:#6B6C6E"/>
		<stop  offset="0.7659" style="stop-color:#505153"/>
		<stop  offset="1" style="stop-color:#282829"/>
	</linearGradient>
	<path fill="url(#SVGID_8_)" d="M105.6,91.1c-4,11.1-11,20.7-20.9,28.9c-10.5,8.7-21.3,13.1-32.3,13.1c-7.3,0-13.1-1.8-17.4-5.5
		c-1.6-1.9-3.1-3.8-4.7-5.6c-0.7,0.2-1.7,1.8-3.1,5c-1.4,3.2-2.4,4.8-3.1,4.8H6.3c-0.7,0-0.9-0.4-0.6-1.1c0,0.1,0.2-0.4,0.7-1.5
		c4.1-8.9,10.8-26,20-51.3c3.8-10.3,8.8-25.5,15.2-45.5c4.1-12.7,5.8-18.3,5.2-16.8c0.5-1.5,1.6-2.3,3.1-2.4
		c2.1-0.1,5.1-0.2,9.2-0.3c0.8-0.1,2.5-0.2,5-0.6c2.1-0.3,3.8-0.5,5.1-0.5c0.9,0,1.1,0.6,0.7,1.9c-0.7,1.9-1.9,4.8-3.6,8.7
		c-1.7,3.9-2.9,6.8-3.6,8.8c-1.1,2.9-2.8,7.3-5.1,13.1c-2.4,5.8-4.1,10.2-5.1,13.1c-0.8,2.1-0.8,3.2,0,3.2c0.4,0,0.9-0.3,1.6-0.9
		c9-7.6,18.6-11.5,28.8-11.5c11.7,0,19.5,4.3,23.6,13C110.1,69.4,109.9,79.3,105.6,91.1z M86.8,90.3c2.4-6.6,2.4-12.5,0-17.6
		c-2.5-5.4-7.1-8.1-13.7-8.1c-6.8,0-13.4,2.7-19.8,8c-6.2,5-10.5,10.9-13,17.8c-2.5,6.9-2.5,12.9,0,17.9c2.6,5.2,7.3,7.9,14.2,7.9
		c6.7,0,13.2-2.7,19.6-8.1C80.1,103,84.3,97.1,86.8,90.3z"/>
</g>
<g>
	<text transform="matrix(1.7674 0 0 1 115.133 158.1604)"><tspan x="0" y="0" fill="#6B6C6F" font-family="'ArtBrush'" font-size="23.888" letter-spacing="-0.6">web </tspan><tspan x="37.8" y="0" fill="#6B6C6F" font-family="'Arial-BoldItalicMT'" font-size="17.5588">&amp; </tspan><tspan x="54.3" y="0" fill="#6B6C6F" font-family="'ArtBrush'" font-size="23.888" letter-spacing="-0.6">designer</tspan></text>
</g>
</svg>
